<svg width="22" height="22" viewBox="0 0 22 22" fill="none" xmlns="http://www.w3.org/2000/svg">
<path d="M11 21.6748C11.3115 21.6748 11.5264 21.4814 11.5586 21.1914C12.2891 13.0059 12.8906 12.4258 20.9688 11.7598C21.2588 11.749 21.4629 11.5234 21.4629 11.2441C21.4629 10.9541 21.2588 10.7393 20.9688 10.7285C12.8906 10.0518 12.2891 9.47168 11.5586 1.29688C11.5264 0.996094 11.3115 0.813477 11 0.813477C10.71 0.813477 10.4844 0.996094 10.4414 1.29688C9.7002 9.47168 9.10938 10.0518 1.03125 10.7285C0.741211 10.7393 0.537109 10.9541 0.537109 11.2441C0.537109 11.5234 0.741211 11.7168 1.03125 11.7598C9.02344 12.7051 9.59277 12.9307 10.4414 21.1914C10.4844 21.4814 10.71 21.6748 11 21.6748Z" fill="#EBEBF5" fill-opacity="0.6"/>
</svg>
